<?xml version="1.0" encoding="utf-8"?>
<!-- Generator: Adobe Illustrator 19.2.1, SVG Export Plug-In . SVG Version: 6.00 Build 0)  -->
<svg version="1.1" id="Warstwa_1" xmlns="http://www.w3.org/2000/svg" xmlns:xlink="http://www.w3.org/1999/xlink" x="0px" y="0px"
	 viewBox="0 0 302.1 63" style="enable-background:new 0 0 302.1 63;" xml:space="preserve">
<style type="text/css">
</style>
<g>
	<path class="st0" d="M0,63V25.3c0-3.3,1.2-6.1,3.7-8.5c2.5-2.4,6.3-3.6,11.4-3.6c1.2,0,2.4,0.1,3.6,0.3c1.2,0.2,2.6,0.7,4.2,1.5
		c1.6,0.8,3,1.8,4.1,3.1c1.1,1.3,2.1,3.1,3,5.6c0.8,2.4,1.3,5.3,1.3,8.5c0,5.9-1.4,10.4-4.3,13.6c-2.9,3.2-7,4.7-12.3,4.7
		c-2,0-4-0.2-5.9-0.6V63H0z M8.6,43.3c2,0.3,3.8,0.4,5.3,0.4c2.8,0,4.9-0.8,6.4-2.4c1.5-1.6,2.2-4.5,2.2-8.6c0-4.2-0.6-7.3-1.7-9.1
		c-1.1-1.9-3-2.8-5.8-2.8c-4.3,0-6.5,1.3-6.5,3.9V43.3z"/>
	<path class="st0" d="M42.9,45.4c-2.9-3.2-4.4-7.8-4.4-13.7c0-6,1.5-10.5,4.4-13.7c2.9-3.2,7.1-4.8,12.6-4.8s9.7,1.6,12.6,4.8
		c2.9,3.2,4.4,7.8,4.4,13.7c0,6-1.5,10.5-4.4,13.7c-2.9,3.2-7.1,4.8-12.6,4.8S45.8,48.6,42.9,45.4z M49.2,22.7
		c-1.4,1.6-2.1,4.6-2.1,9.1s0.7,7.5,2.1,9c1.4,1.6,3.5,2.3,6.3,2.3s4.9-0.8,6.3-2.3c1.4-1.6,2-4.6,2-9s-0.7-7.5-2-9.1
		c-1.4-1.6-3.5-2.4-6.3-2.4S50.6,21.1,49.2,22.7z"/>
	<path class="st0" d="M81.8,49.7V0h8.6v49.6H81.8z"/>
	<path class="st0" d="M99.6,37.9c0-0.7,0.1-1.5,0.2-2.2c0.1-0.8,0.5-1.7,1.1-2.9c0.6-1.1,1.4-2.2,2.5-3c1-0.9,2.6-1.6,4.6-2.2
		c2-0.6,4.4-0.9,7.2-0.9c2,0,4.1,0.2,6.3,0.5c0-4.6-2.5-6.9-7.6-6.9c-4,0-7.6,0.6-10.6,1.8V15c3.3-1.2,7-1.8,11-1.8
		c5.1,0,9,1.3,11.8,3.9c2.7,2.6,4.1,6.4,4.1,11.3v9.7c0,3.3-1.2,6.1-3.7,8.5c-2.5,2.4-6.3,3.6-11.4,3.6c-5.3,0-9.2-1.2-11.7-3.6
		C100.9,44.2,99.6,41.3,99.6,37.9z M108.3,36.8c0,3.8,2.3,5.8,6.8,5.8c0,0,0,0,0.1,0c4.3,0,6.5-1.8,6.5-5.4v-4.5
		c-2-0.3-3.7-0.4-5.2-0.5C111,32.1,108.3,33.7,108.3,36.8z"/>
	<path class="st0" d="M139.6,49.7V16.9c0.6-0.3,1.4-0.6,2.4-1c1-0.4,3.1-0.9,6.2-1.6c3.1-0.7,6.2-1.1,9.3-1.1v7.4
		c-3.6,0-6.7,0.4-9.3,1.2v27.9H139.6z"/>
	<g>
		<path class="st1" d="M165.8,38.9V0h5.2v14.6c2.9-1,5.8-1.5,8.8-1.5c1.6,0,3.2,0.1,4.6,0.4c1.4,0.3,2.9,0.8,4.4,1.7
			c1.5,0.8,2.8,1.9,3.9,3.2c1.1,1.3,2,3,2.6,5.3c0.7,2.2,1,4.8,1,7.7c0,3.2-0.4,5.9-1.1,8.3c-0.7,2.4-1.6,4.2-2.7,5.5
			c-1.1,1.3-2.4,2.4-3.9,3.2c-1.5,0.8-2.9,1.3-4.2,1.6c-1.3,0.2-2.6,0.4-3.9,0.4c-2.6,0-4.9-0.3-6.8-1c-1.9-0.6-3.4-1.4-4.3-2.2
			c-1-0.8-1.7-1.9-2.3-3c-0.6-1.2-1-2.1-1.1-2.9S165.8,39.6,165.8,38.9z M171,39.2c0,4.2,3.2,6.3,9.5,6.3c1.3,0,2.5-0.2,3.6-0.5
			c1.1-0.3,2.2-0.9,3.4-1.8c1.2-0.9,2.1-2.3,2.7-4.4c0.6-2,1-4.6,1-7.6c0-4.7-0.9-8-2.7-10.1c-1.8-2.1-4.7-3.2-8.6-3.2
			c-3,0-5.9,0.6-8.8,1.8V39.2z"/>
		<path class="st1" d="M205.8,7.4V1.6h5.8v5.8H205.8z M206.1,49.7h5.2V13.7h-5.2V49.7z"/>
		<path class="st1" d="M219,18.5v-4.7h6.3V3.6h5.2v10.2h9.3v4.7h-9.3v21.9c0,1.8,0.4,3.1,1.1,3.8s2.1,1.1,4,1.1
			c1.5,0,2.8-0.3,4.1-0.8v4.9c-1.5,0.6-3,0.8-4.6,0.8c-0.1,0-0.1,0-0.2,0c-1,0-1.9-0.1-2.8-0.3s-1.9-0.6-3.1-1.2
			c-1.1-0.6-2.1-1.7-2.8-3.1c-0.7-1.5-1.1-3.3-1.1-5.4V18.5H219z"/>
		<path class="st1" d="M246.8,23.5c0-2.9,1-5.3,3.1-7.3c2.1-2,5.3-3,9.6-3c3.1,0,6.1,0.7,9.2,2.2v5.2c-2.7-1.6-5.6-2.5-8.6-2.5
			c-5.4,0-8.1,1.8-8.1,5.5c0,1.2,0.7,2.3,2,3s2.9,1.4,4.8,1.9s3.8,1.1,5.7,1.8c1.9,0.7,3.5,1.9,4.8,3.6c1.3,1.7,2,3.8,2,6.4
			c0,3.1-1.2,5.6-3.5,7.3c-2.3,1.8-5.6,2.7-9.7,2.7c-4,0-7.6-0.9-10.9-2.7V42c3.4,2.1,7,3.2,10.7,3.2c5.5,0,8.2-1.7,8.2-5
			c0-1.8-0.7-3.2-2-4.2c-1.3-1-2.9-1.8-4.8-2.3s-3.8-1.1-5.7-1.7c-1.9-0.6-3.5-1.6-4.8-3C247.5,27.6,246.8,25.8,246.8,23.5z"/>
		<rect x="278" y="45.5" class="st1" width="24.2" height="4.2"/>
	</g>
</g>
</svg>
